<svg id="Слой_1" data-name="Слой 1" xmlns="http://www.w3.org/2000/svg" viewBox="0 0 116 116"><defs><style>.cls-1{fill:#fff;}</style></defs><title>favicon</title><circle class="cls-1" cx="58" cy="58" r="56.5"/><path d="M60,5A55,55,0,1,1,5,60,55.06,55.06,0,0,1,60,5m0-3a58,58,0,1,0,58,58A58,58,0,0,0,60,2Z" transform="translate(-2 -2)"/><path class="cls-1" d="M77.4,58.5c-6.21,0-11.26-7.65-11.26-17.06s5-17.06,11.26-17.06S88.66,32,88.66,41.44,83.61,58.5,77.4,58.5Z" transform="translate(-2 -2)"/><path d="M77.4,25.88c5.29,0,9.76,7.13,9.76,15.56S82.69,57,77.4,57s-9.76-7.13-9.76-15.56,4.47-15.56,9.76-15.56m0-3c-7.05,0-12.76,8.31-12.76,18.56S70.35,60,77.4,60s12.76-8.31,12.76-18.56S84.45,22.88,77.4,22.88Z" transform="translate(-2 -2)"/><ellipse class="cls-1" cx="37.12" cy="42.92" rx="6.62" ry="10.1"/><path d="M39.12,36.32c2.42,0,5.12,3.53,5.12,8.6s-2.7,8.6-5.12,8.6S34,50,34,44.92s2.7-8.6,5.12-8.6m0-3c-4.48,0-8.12,5.19-8.12,11.6s3.64,11.6,8.12,11.6,8.12-5.19,8.12-11.6-3.64-11.6-8.12-11.6Z" transform="translate(-2 -2)"/><path class="cls-1" d="M60,102.58c-19.64,0-35.62-14-35.62-31.18a27.56,27.56,0,0,1,.33-4.25c6.13,12.13,20,20.27,35.29,20.27s29.16-8.14,35.29-20.27a27.56,27.56,0,0,1,.33,4.25C95.62,88.59,79.64,102.58,60,102.58Z" transform="translate(-2 -2)"/><path d="M94.11,72C93.73,88.1,78.57,101.08,60,101.08S26.27,88.1,25.89,72C33.09,82.29,46,88.92,60,88.92S86.91,82.29,94.11,72m1.56-9.7C91.2,76,76.92,85.92,60,85.92S28.8,76,24.33,62.32a29.3,29.3,0,0,0-1.45,9.08c0,18,16.62,32.68,37.12,32.68S97.12,89.45,97.12,71.4a29.3,29.3,0,0,0-1.45-9.08Z" transform="translate(-2 -2)"/></svg>